<svg id="Layer_1" data-name="Layer 1" xmlns="http://www.w3.org/2000/svg" xmlns:xlink="http://www.w3.org/1999/xlink" viewBox="0 0 300 299.94"><defs><style>.cls-1{fill:url(#linear-gradient);}.cls-2{fill:url(#linear-gradient-2);}</style><linearGradient id="linear-gradient" x1="178.16" y1="136.28" x2="436.66" y2="288.53" gradientTransform="translate(-129.25 -41.93)" gradientUnits="userSpaceOnUse"><stop offset="0.41" stop-color="#927d6e"/><stop offset="1" stop-color="#ddc3bd"/></linearGradient><linearGradient id="linear-gradient-2" x1="13.39" y1="102.84" x2="313.72" y2="220.49" gradientTransform="matrix(1, 0, 0, 1, 0, 0)" xlink:href="#linear-gradient"/></defs><path class="cls-1" d="M297,100.06a155.75,155.75,0,0,0-46.56-58.79c-19.56-15.13-44.26-24-68.67-28-3.15-.52-6.32-1-9.5-1.31-2.57-.28-2.73.65-1.95,2.32a8,8,0,0,0,6,4.73,155.17,155.17,0,0,1,35.46,8.75c1.31.48,2.61,1,3.91,1.51l.25.1.76.32c.78.33,1.57.67,2.35,1q3.94,1.74,7.77,3.72t7.75,4.32c1.2.72,2.39,1.46,3.58,2.21l.14.09.09.06c.32.22.65.43,1,.64l1.94,1.32a147.43,147.43,0,0,1,14.1,11.05c.2.18.77.7.94.84l1.48,1.38c1.15,1.1,2.29,2.21,3.41,3.35q3.09,3.12,6,6.41c.93,1.07,1.85,2.14,2.75,3.23L271.31,71l.11.14.72.92q2.73,3.51,5.23,7.19t4.76,7.47c.7,1.18,1.38,2.37,2.05,3.56l.05.09c.22.41.44.81.65,1.22.37.69.72,1.37,1.08,2.06a146.72,146.72,0,0,1,7,15.91c.48,1.32.95,2.65,1.39,4l.39,1.21c.25.81.5,1.63.74,2.44q1.21,4.13,2.19,8.32a139.15,139.15,0,0,1,3.63,35.07,143.21,143.21,0,0,1-70.87,120.61c-2.11,1.24-4.26,2.39-6.42,3.51-.28-1-.54-2.06-.77-3l-.81-3.3,0-.11a158.11,158.11,0,0,1-3.73-18.44,261.76,261.76,0,0,0-14.22-56.67c-.19-.52-.37-1-.55-1.45-.44-6.21-.29-9.85,3.27-15.06,2.28-3.33,8.75-4.21,11.66-7,3.57-3.45,5.84-10.92,9.07-13.47a141.77,141.77,0,0,0,12.3-10.51c6.82-6.82,7.86-17.5,2.59-26.12a31.18,31.18,0,0,1,4.22-11l.16-.27v-.3c0-17.83-8.11-33.49-17.12-49.26-2.7-5-6.51-8.62-10.71-12.05l-.5-.52c-.84-.85-7.42-7.9-11.13-10.58a6.05,6.05,0,0,0-3.35-1c-5.72,0-15.08,4.16-15,4.46L193,51.61s8.58,7.11,9.54,16.21c.48,4.55-.94,9.1-1.16,10.46l0,0v.12a1.43,1.43,0,0,0,0,.28c0,.14.05.28.08.43a17.58,17.58,0,0,0,1.26,5.59,44.47,44.47,0,0,0,5.77,8.16c4,4.46,8.13,7.08,12.38,7.78l.24,0c.88.14,1.79.29,2.18.86a2.89,2.89,0,0,1,.33,1.29,122.43,122.43,0,0,1,1,13.72,46.88,46.88,0,0,1-.62,8c-3.12.37-8.24,1.35-12,2.06l-1.82.35a9.41,9.41,0,0,0-2.81.87,5.19,5.19,0,0,0-2.64,4.07l-.07,0-.3.21.84,1.21.31-.21A13.81,13.81,0,0,1,212.7,131l.4,0a64.68,64.68,0,0,0,8.77-.92,5.91,5.91,0,0,0,.81-.28,68.77,68.77,0,0,1-3.5,7.85c-.84,1.7-1.71,3.44-2.48,5.22-.1.25-.37,0-2.54.5a8.08,8.08,0,0,1-7.47-2.54c-1.17-1.3-1.37-1.64-1.8-2a2.54,2.54,0,0,0-1.93-.28c-.47.09-.29,1.23-.24,1.77l.62-.95c.33-.16.79.1.92.15.28.11.47.28.47.44a6.51,6.51,0,0,0,2.11,4,9.7,9.7,0,0,0,4.91,2.09,5.87,5.87,0,0,0,3.07-.39c.19-.1-.4,4.59-.5,6.15,0,.51-.06,1-.06,1.63,0,1.15.07,2.29.14,3.41s.13,2.2.13,3.3a17.33,17.33,0,0,1-.28,3.33c-.95,4.84-4.68,8.88-7.68,12.14l-11.13,12.08a26.73,26.73,0,0,0-6.38-4.28c-.21-.11-.42-.2-.63-.3a11,11,0,0,0,3.9-2.43,10,10,0,0,0,2.29-2.86c0-.07-.24-.22-.51-.32a14.51,14.51,0,0,0,2.14-.9,27.41,27.41,0,0,0,4-2.92,8.49,8.49,0,0,1-3.64,1.27l-3.67-.63a6.43,6.43,0,0,0-3.07-.13c-.22.06-.43.13-.64.21a2.39,2.39,0,0,1-.83.22,2.06,2.06,0,0,1-1.11-.44l-.09,0c-.23-.13-.45-.27-.68-.38a8.53,8.53,0,0,0-2.74-.65l-14.05-.84c-1.17-.4-1.1-.64-2.16-1.37a14.1,14.1,0,0,1-1.31-1,16,16,0,0,0-1.71-1.3,4.57,4.57,0,0,0-4.16-.62l0-.55c0-.17,0-.36,0-.54a2,2,0,0,1,.11-.78c.32-.76,1.4-1.09,2.3-1.29l1.43-.3a32.08,32.08,0,0,0,4.21-1.07c2.23-.79,4.58-4.21,4.58-4.21a30.8,30.8,0,0,1-5.07,2.82,30.3,30.3,0,0,1-4,1l-1.45.31c-1.25.28-2.77.78-3.34,2.17a3.33,3.33,0,0,0-.23,1.33c0,.22,0,.43,0,.63l1.15,6.1.43-4.24s.82-1.36,3.31.48c.5.37,1,.74,1.54,1.18s.92.77,1.42,1.12a17.63,17.63,0,0,0,4.4,2l7.93,2.72a25.44,25.44,0,0,0,9.42,1.69l.7,0a18.38,18.38,0,0,0,4.35-.78,12.25,12.25,0,0,1-6,5A56.6,56.6,0,0,0,174,178.75c-8.58-1.5-17.54-1.61-25.27-1.59v.15l-.56,0h-.41l0,.42a3,3,0,0,1,0,.67l0,.39h.4c3.37.08,6.81.2,9.77.31l.73,0c8,.29,17.35.86,25.95,4A28.28,28.28,0,0,1,194.75,189c3.41,3.29,5.47,7.62,6.88,11,.43,1,.87,2.16,1.39,3.55A260.69,260.69,0,0,1,217.16,260a157,157,0,0,0,3.76,18.59l0,.1c.26,1.06.53,2.15.81,3.31s.56,2.23.87,3.4l-.32.15-.07,0a143.88,143.88,0,0,1-60,15.12c-.22-.69-.44-1.38-.64-2.07-.6-2-1.16-4.09-1.7-6.1a115.64,115.64,0,0,0-4-12.91c-2.89-7.28-6.85-12.69-11.77-16.07l-.31-.21-.83,1.22.3.21c4.68,3.21,8.46,8.39,11.24,15.4a116.51,116.51,0,0,1,4,12.75c.54,2,1.1,4.08,1.7,6.13.17.56.34,1.11.52,1.66A144.46,144.46,0,0,1,128,297.51h0a11.57,11.57,0,0,0-.23-4.36,22,22,0,0,0-3.89-7.11l-.54-.74c-1.47-2.07-4.22-5.91-4.33-8.7a7.53,7.53,0,0,1,.25-2.23l3.49.72a5.2,5.2,0,0,0,4.49-.9,6.78,6.78,0,0,0,2.13-5.4c0-3.38-1.72-5.07-3.75-7-.43-.43-.89-.88-1.33-1.34a14.93,14.93,0,0,1,.8-3.68c1.78-6.31,5.09-18-2.57-29.64-2.21-3.35-3-6.62-2.06-8.73.63-1.43,2-2.33,4.11-2.67.55-.09,1.14-.15,1.71-.2a9.31,9.31,0,0,0,5.07-1.5c2.29-1.79,2.53-4.92,2.46-8l-.06-2.58-1.31,2.22A4.2,4.2,0,0,1,131,207a6.23,6.23,0,0,1-2.12.58,6.12,6.12,0,0,1-3.34-.59,3.69,3.69,0,0,1-.77-.65c-2.49-2.78-1-7.47,1.45-10.64a44.74,44.74,0,0,1,4.7-4.72,45.46,45.46,0,0,0,5.19-5.58,18.9,18.9,0,0,0,4.36-6.69c.08,0,.12-.49.12-.49s.07-.26.1-.39v0a3.37,3.37,0,0,0,.09-1.28,5.92,5.92,0,0,0-.21-1.4l-.06-.46c0-.07,0-.14,0-.21a3.9,3.9,0,0,0-.18-.67c-1.11-3.23-4.3-5.22-7.39-7.15-2.78-1.74-5.65-3.53-7-6.2a9.82,9.82,0,0,1-.54-1.25c-1.29-4.66-.11-9.28,1.46-13.38q.17-.39.3-.75l1.49-3.67-2,3a3.25,3.25,0,0,0-.23.29l.53-1.34-1,1.26-.58.72c-1.41,1.79-3.27,3.65-3.88,3.65-.12-.27-.23-.54-.34-.81a47.76,47.76,0,0,1-1.25-4.86c-.09-.48-.17-1-.23-1.44a26.63,26.63,0,0,1,.89-11.44,19,19,0,0,1,3.85-6.74,3.36,3.36,0,0,1,2-1.29,1.52,1.52,0,0,1,1.1.54c.77.77.76,2.31.75,3.55v.74a48.81,48.81,0,0,1-1.54,12.09v.07h0l-.32,1.33.93-1c5.42-4.44,8.62-10.54,11.51-16.65.54-1,1.07-2.12,1.55-3.2.22-.49.43-1,.65-1.48,1.09-2.31,2.24-4.62,3.52-6.8,3.84-6.5,10-7.5,16.59-8.55,2-.32,4-.65,6-1.14,5.32-1.3,8.11-5.28,10.14-9l.19-.36c1.09-2,2-3.73,4.15-4.73a15.43,15.43,0,0,1,3.84-1c.8-.14,1.62-.27,2.36-.47,3.72-1,8.32-2.64,10.94-6.82a17.54,17.54,0,0,0,2.18-12,22.41,22.41,0,0,0-3.07-8,21.9,21.9,0,0,0-11.16-10.34c.61-.41,1.21-.84,1.8-1.27h0A46.66,46.66,0,0,1,196.07,45l.65-.18-.51-.45-.84-.26a9.23,9.23,0,0,1,1.19-.2l.49,0-.19-.46c-.9-2.13-2.5-3.07-4.19-4.07-.48-.29-1-.58-1.51-.94-.76-.37-1.7-.75-2.62-1.12s-1.83-.73-2.61-1.12a46.64,46.64,0,0,0-23-1l.69,0c-1,.15-2,.34-3,.56q1.16-.3,2.31-.54c-17.69.81-30.6,13.59-40.6,29.2a113.23,113.23,0,0,0-8.9,14.21,16.78,16.78,0,0,1-1.56,1.8,20.39,20.39,0,0,1-2,1.7,27.33,27.33,0,0,0-2.4,1.84c-.47.36-.94.74-1.39,1.14a21.1,21.1,0,0,0-3.46,4.07c-.46.61-.91,1.24-1.35,1.9a33.6,33.6,0,0,0-2,5.3c-1,3-1.74,6-2.46,9.09-1.21,5.18-2.49,10.5-5,15.06,0,0-2.49,3.67-2.61,3.92l-.66.83s-1.79,2-2.16,2.56c0,0-5.83,6.92-7,11.24a16.78,16.78,0,0,0-.51,4.3,22.86,22.86,0,0,0,3.19,12.91l0,.05,0,.12a5.58,5.58,0,0,1,.07,2.25,2.82,2.82,0,0,1-.52,1,5.84,5.84,0,0,1-3.18,1.59l-.15,0a14.51,14.51,0,0,0-1.46.45l-.54.23c-3.12,1.5-4.21,5.26-4.22,8.43a44.79,44.79,0,0,0-.38,7.16c-.55,4.38-2.37,8.86-4.13,13.2-.59,1.45-1.2,3-1.77,4.47-.81,2.86.11,5.5,1,8.06a16.69,16.69,0,0,1,1.28,5.87c-.68,2.3-2,5.13-4.69,6.44-.39.2-.81.36-1.25.54-1.27.49-2.59,1-3.19,2.28a5.88,5.88,0,0,0-.49,1.86c-1.94,3.28,1,8.1,2.8,11.17l.1.16a9.42,9.42,0,0,0,.1,1.08s0,.07,0,.1a2.73,2.73,0,0,1-1.11,1.84,3.55,3.55,0,0,1-.78.39,15.86,15.86,0,0,1-1.84.5,14.23,14.23,0,0,0-5.39,2.13.1.1,0,0,0,0,0c-.14.09-.27.19-.41.3l-.16.14a3.22,3.22,0,0,0-.28.24c-.07,0-.13.12-.19.17s-.17.16-.25.25l-.19.2c-.07.09-.15.17-.23.26l-.19.23-.22.27L50,240l-.22.3-.18.27-.2.31-.18.29c-.06.12-.13.23-.19.34l-.17.31c-.07.12-.13.24-.19.36s-.11.22-.17.34l-.18.37-.16.36-.18.39-.15.38c-.06.14-.12.28-.17.42l-.15.4c-.06.14-.11.29-.17.44s-.09.28-.14.42-.08.22-.11.33c-1.35-1.79-2.66-3.6-3.92-5.45-1.45-2.14-2.85-4.33-4.19-6.55-.67-1.1-1.33-2.22-2-3.35-.08-.13-.62-1.11-.67-1.18l-1-1.88a146.42,146.42,0,0,1-6.55-14.3c-.95-2.43-1.85-4.89-2.67-7.38-.07-.2-.38-1.16-.41-1.26-.19-.61-.38-1.23-.56-1.85-.37-1.23-.73-2.48-1.06-3.72A142.23,142.23,0,0,1,43.76,81.83a146.42,146.42,0,0,1,44.05-42A141.88,141.88,0,0,1,144.06,20c2.48-.31,5-.55,7.48-.73,5.67-.43.05-9.58-4.08-9.27A147.71,147.71,0,0,0,14.12,123.67a150.89,150.89,0,0,0,26,124c1.79,2.42,3.67,4.79,5.59,7.12h0l.58.7.14.15a155.14,155.14,0,0,0,62.72,44.51,145.7,145.7,0,0,0,20,6.08l.08,0,.72.16.24,0a153.87,153.87,0,0,0,36.06,3.46h0a148.58,148.58,0,0,0,61.9-15.33l.09,0,.68-.34.07-.05a147.9,147.9,0,0,0,80.85-121A150.94,150.94,0,0,0,297,100.06Zm-12.85-10c-.2-.36-.1-.2,0,0Zm-59.54,10.65.33,0,0,.82A3.09,3.09,0,0,0,224.56,100.75ZM189.11,177a23.08,23.08,0,0,1-9.58-1.6l-7.72-2.15,11.78,1.31a7.54,7.54,0,0,1,2.27.52,5.45,5.45,0,0,1,.57.32,3.09,3.09,0,0,0,3.33.38l.48-.17a10.89,10.89,0,0,1,2.45,0l3.51.18A36.88,36.88,0,0,1,189.11,177Zm-67.17-27.47h0a1.39,1.39,0,0,1-.26.1h0ZM120.71,272a2.16,2.16,0,0,1,1.25-.37,4,4,0,0,1,1.54.37,1.13,1.13,0,0,1,0,.95,1,1,0,0,1-.78.72l-3.45.42A3.93,3.93,0,0,1,120.71,272Zm-44-109.34a5.83,5.83,0,0,0-2.44,2.3h0a5.76,5.76,0,0,1,2.45-2.31,12,12,0,0,1,2-.68A12,12,0,0,0,76.66,162.61Zm2.6-.84a9.2,9.2,0,0,0,1.57-.58A9.2,9.2,0,0,1,79.26,161.77Zm78.52-41.57.35-.12a30.69,30.69,0,0,1,9.18-1.87,25.61,25.61,0,0,1,12.1,3.23,78.35,78.35,0,0,1,10.71,7.16l.3.22.84-1.12,1.14.24.08-.36a13.39,13.39,0,0,0,.38-3,4.73,4.73,0,0,0-1.41-3.71,7,7,0,0,0-2.21-1.21l-8.44-3.27a31.37,31.37,0,0,0-4.86-1.58c-6.29-1.33-12.72,1.19-17.89,3.22l-.34.14.18.47-.58.19ZM202,135.28l-.29.23a4.74,4.74,0,0,0-1.6,4,14.54,14.54,0,0,0,.22,2.34,16.54,16.54,0,0,1,.18,2.53c0,1-.07,2-.13,2.92s-.14,2-.14,3a17.22,17.22,0,0,0,.2,2.76,19.58,19.58,0,0,0,.82,3c.1.34.21.68.32,1,.59,1.94.86,3.47.25,4.65-1.53,2.94-5.1,4.22-8.63,5.28l-.35.1s8.49-1.24,10.29-4.7a4.85,4.85,0,0,0,.51-2.26,15.39,15.39,0,0,0-1-4.54,19.56,19.56,0,0,1-.76-2.81,15.32,15.32,0,0,1-.19-2.53c0-1,.07-2,.14-2.91s.14-2,.14-3a18.23,18.23,0,0,0-.2-2.75,12.75,12.75,0,0,1-.2-2.11,4.24,4.24,0,0,1,.5-2.25A8.14,8.14,0,0,0,202,135.28Zm-41-4.13-.74.79,1,.4a25.1,25.1,0,0,1,4.09,2.18c2.69,1.57,5.48,3.19,7.75,3.43a7.14,7.14,0,0,0,.8,0c2.8,0,5.58-1.47,8-2.78l1.47-.76.33-.17-.19-.68c.27-.11.59-.19.77,0l1.38,1.59.08-.36a2.58,2.58,0,0,0,0-.39,1.88,1.88,0,0,0-.5-1.34,1.66,1.66,0,0,0-1.53-.6c-.84,0-2.38,1.27-3.12,1.53-.32.11-3.65,2.69-9.85-.08-5-2.24-8-4.35-8.56-5.44-1.15-.37-6.43,1.25-6.43,1.25s4.46-.34,5.93.16a.47.47,0,0,1-.05.1A7,7,0,0,1,161,131.15Zm19.14,30.93c1.32,1,3.13.84,4.38.6l.39-.07a17.23,17.23,0,0,1,5.3-.11,6.49,6.49,0,0,1,1.32.79,9.47,9.47,0,0,1,1.9,2,6.09,6.09,0,0,0-1.78-3.19,6.9,6.9,0,0,0-1.68-1c-1.3-.48-4.09-.21-5.35,0l-.39.07c-.95.19-2.32.36-3.17-.31a3.52,3.52,0,0,1-1-2.71c0-.1,0-.2,0-.31a3.77,3.77,0,0,1,.17-1.22,4.58,4.58,0,0,1,1.15-1.58,20.28,20.28,0,0,1,3-2.51c.83-.55,1.43-.74,1.86-.57a2.36,2.36,0,0,1,.9.87c1.1,1.46,2.19,3,3.25,4.46l.21.3s-1.17-4.17-2.28-5.65a3.76,3.76,0,0,0-1.55-1.36,3.55,3.55,0,0,0-3.21.73,21.52,21.52,0,0,0-3.26,2.68,5.92,5.92,0,0,0-1.5,2.13l-.09.28a5.61,5.61,0,0,0-.17,1.43c0,.13,0,.25,0,.37A4.89,4.89,0,0,0,180.1,162.08Z" transform="translate(-10.25 -10.03)"/><path class="cls-2" d="M297,100.06a155.75,155.75,0,0,0-46.56-58.79c-19.56-15.13-44.26-24-68.67-28-3.15-.52-6.32-1-9.5-1.31-2.57-.28-2.73.65-1.95,2.32a8,8,0,0,0,6,4.73,155.17,155.17,0,0,1,35.46,8.75c1.31.48,2.61,1,3.91,1.51l.25.1.76.32c.78.33,1.57.67,2.35,1q3.94,1.74,7.77,3.72t7.75,4.32c1.2.72,2.39,1.46,3.58,2.21l.14.09.09.06c.32.22.65.43,1,.64l1.94,1.32a147.43,147.43,0,0,1,14.1,11.05c.2.18.77.7.94.84l1.48,1.38c1.15,1.1,2.29,2.21,3.41,3.35q3.09,3.12,6,6.41c.93,1.07,1.85,2.14,2.75,3.23L271.31,71l.11.14.72.92q2.73,3.51,5.23,7.19t4.76,7.47c.7,1.18,1.38,2.37,2.05,3.56l.05.09c.22.41.44.81.65,1.22.37.69.72,1.37,1.08,2.06a146.72,146.72,0,0,1,7,15.91c.48,1.32.95,2.65,1.39,4l.39,1.21c.25.81.5,1.63.74,2.44q1.21,4.13,2.19,8.32a139.15,139.15,0,0,1,3.63,35.07,143.21,143.21,0,0,1-70.87,120.61c-2.11,1.24-4.26,2.39-6.42,3.51-.28-1-.54-2.06-.77-3l-.81-3.3,0-.11a158.11,158.11,0,0,1-3.73-18.44,261.76,261.76,0,0,0-14.22-56.67c-.19-.52-.37-1-.55-1.45-.44-6.21-.29-9.85,3.27-15.06,2.28-3.33,8.75-4.21,11.66-7,3.57-3.45,5.84-10.92,9.07-13.47a141.77,141.77,0,0,0,12.3-10.51c6.82-6.82,7.86-17.5,2.59-26.12a31.18,31.18,0,0,1,4.22-11l.16-.27v-.3c0-17.83-8.11-33.49-17.12-49.26-2.7-5-6.51-8.62-10.71-12.05l-.5-.52c-.84-.85-7.42-7.9-11.13-10.58a6.05,6.05,0,0,0-3.35-1c-5.72,0-15.08,4.16-15,4.46L193,51.61s8.58,7.11,9.54,16.21c.48,4.55-.94,9.1-1.16,10.46l0,0v.12a1.43,1.43,0,0,0,0,.28c0,.14.05.28.08.43a17.58,17.58,0,0,0,1.26,5.59,44.47,44.47,0,0,0,5.77,8.16c4,4.46,8.13,7.08,12.38,7.78l.24,0c.88.14,1.79.29,2.18.86a2.89,2.89,0,0,1,.33,1.29,122.43,122.43,0,0,1,1,13.72,46.88,46.88,0,0,1-.62,8c-3.12.37-8.24,1.35-12,2.06l-1.82.35a9.41,9.41,0,0,0-2.81.87,5.19,5.19,0,0,0-2.64,4.07l-.07,0-.3.21.84,1.21.31-.21A13.81,13.81,0,0,1,212.7,131l.4,0a64.68,64.68,0,0,0,8.77-.92,5.91,5.91,0,0,0,.81-.28,68.77,68.77,0,0,1-3.5,7.85c-.84,1.7-1.71,3.44-2.48,5.22-.1.25-.37,0-2.54.5a8.08,8.08,0,0,1-7.47-2.54c-1.17-1.3-1.37-1.64-1.8-2a2.54,2.54,0,0,0-1.93-.28c-.47.09-.29,1.23-.24,1.77l.62-.95c.33-.16.79.1.92.15.28.11.47.28.47.44a6.51,6.51,0,0,0,2.11,4,9.7,9.7,0,0,0,4.91,2.09,5.87,5.87,0,0,0,3.07-.39c.19-.1-.4,4.59-.5,6.15,0,.51-.06,1-.06,1.63,0,1.15.07,2.29.14,3.41s.13,2.2.13,3.3a17.33,17.33,0,0,1-.28,3.33c-.95,4.84-4.68,8.88-7.68,12.14l-11.13,12.08a26.73,26.73,0,0,0-6.38-4.28c-.21-.11-.42-.2-.63-.3a11,11,0,0,0,3.9-2.43,10,10,0,0,0,2.29-2.86c0-.07-.24-.22-.51-.32a14.51,14.51,0,0,0,2.14-.9,27.41,27.41,0,0,0,4-2.92,8.49,8.49,0,0,1-3.64,1.27l-3.67-.63a6.43,6.43,0,0,0-3.07-.13c-.22.06-.43.13-.64.21a2.39,2.39,0,0,1-.83.22,2.06,2.06,0,0,1-1.11-.44l-.09,0c-.23-.13-.45-.27-.68-.38a8.53,8.53,0,0,0-2.74-.65l-14.05-.84c-1.17-.4-1.1-.64-2.16-1.37a14.1,14.1,0,0,1-1.31-1,16,16,0,0,0-1.71-1.3,4.57,4.57,0,0,0-4.16-.62l0-.55c0-.17,0-.36,0-.54a2,2,0,0,1,.11-.78c.32-.76,1.4-1.09,2.3-1.29l1.43-.3a32.08,32.08,0,0,0,4.21-1.07c2.23-.79,4.58-4.21,4.58-4.21a30.8,30.8,0,0,1-5.07,2.82,30.3,30.3,0,0,1-4,1l-1.45.31c-1.25.28-2.77.78-3.34,2.17a3.33,3.33,0,0,0-.23,1.33c0,.22,0,.43,0,.63l1.15,6.1.43-4.24s.82-1.36,3.31.48c.5.37,1,.74,1.54,1.18s.92.77,1.42,1.12a17.63,17.63,0,0,0,4.4,2l7.93,2.72a25.44,25.44,0,0,0,9.42,1.69l.7,0a18.38,18.38,0,0,0,4.35-.78,12.25,12.25,0,0,1-6,5A56.6,56.6,0,0,0,174,178.75c-8.58-1.5-17.54-1.61-25.27-1.59v.15l-.56,0h-.41l0,.42a3,3,0,0,1,0,.67l0,.39h.4c3.37.08,6.81.2,9.77.31l.73,0c8,.29,17.35.86,25.95,4A28.28,28.28,0,0,1,194.75,189c3.41,3.29,5.47,7.62,6.88,11,.43,1,.87,2.16,1.39,3.55A260.69,260.69,0,0,1,217.16,260a157,157,0,0,0,3.76,18.59l0,.1c.26,1.06.53,2.15.81,3.31s.56,2.23.87,3.4l-.32.15-.07,0a143.88,143.88,0,0,1-60,15.12c-.22-.69-.44-1.38-.64-2.07-.6-2-1.16-4.09-1.7-6.1a115.64,115.64,0,0,0-4-12.91c-2.89-7.28-6.85-12.69-11.77-16.07l-.31-.21-.83,1.22.3.21c4.68,3.21,8.46,8.39,11.24,15.4a116.51,116.51,0,0,1,4,12.75c.54,2,1.1,4.08,1.7,6.13.17.56.34,1.11.52,1.66A144.46,144.46,0,0,1,128,297.51h0a11.57,11.57,0,0,0-.23-4.36,22,22,0,0,0-3.89-7.11l-.54-.74c-1.47-2.07-4.22-5.91-4.33-8.7a7.53,7.53,0,0,1,.25-2.23l3.49.72a5.2,5.2,0,0,0,4.49-.9,6.78,6.78,0,0,0,2.13-5.4c0-3.38-1.72-5.07-3.75-7-.43-.43-.89-.88-1.33-1.34a14.93,14.93,0,0,1,.8-3.68c1.78-6.31,5.09-18-2.57-29.64-2.21-3.35-3-6.62-2.06-8.73.63-1.43,2-2.33,4.11-2.67.55-.09,1.14-.15,1.71-.2a9.31,9.31,0,0,0,5.07-1.5c2.29-1.79,2.53-4.92,2.46-8l-.06-2.58-1.31,2.22A4.2,4.2,0,0,1,131,207a6.23,6.23,0,0,1-2.12.58,6.12,6.12,0,0,1-3.34-.59,3.69,3.69,0,0,1-.77-.65c-2.49-2.78-1-7.47,1.45-10.64a44.74,44.74,0,0,1,4.7-4.72,45.46,45.46,0,0,0,5.19-5.58,18.9,18.9,0,0,0,4.36-6.69c.08,0,.12-.49.12-.49s.07-.26.1-.39v0a3.37,3.37,0,0,0,.09-1.28,5.92,5.92,0,0,0-.21-1.4l-.06-.46c0-.07,0-.14,0-.21a3.9,3.9,0,0,0-.18-.67c-1.11-3.23-4.3-5.22-7.39-7.15-2.78-1.74-5.65-3.53-7-6.2a9.82,9.82,0,0,1-.54-1.25c-1.29-4.66-.11-9.28,1.46-13.38q.17-.39.3-.75l1.49-3.67-2,3a3.25,3.25,0,0,0-.23.29l.53-1.34-1,1.26-.58.72c-1.41,1.79-3.27,3.65-3.88,3.65-.12-.27-.23-.54-.34-.81a47.76,47.76,0,0,1-1.25-4.86c-.09-.48-.17-1-.23-1.44a26.63,26.63,0,0,1,.89-11.44,19,19,0,0,1,3.85-6.74,3.36,3.36,0,0,1,2-1.29,1.52,1.52,0,0,1,1.1.54c.77.77.76,2.31.75,3.55v.74a48.81,48.81,0,0,1-1.54,12.09v.07h0l-.32,1.33.93-1c5.42-4.44,8.62-10.54,11.51-16.65.54-1,1.07-2.12,1.55-3.2.22-.49.43-1,.65-1.48,1.09-2.31,2.24-4.62,3.52-6.8,3.84-6.5,10-7.5,16.59-8.55,2-.32,4-.65,6-1.14,5.32-1.3,8.11-5.28,10.14-9l.19-.36c1.09-2,2-3.73,4.15-4.73a15.43,15.43,0,0,1,3.84-1c.8-.14,1.62-.27,2.36-.47,3.72-1,8.32-2.64,10.94-6.82a17.54,17.54,0,0,0,2.18-12,22.41,22.41,0,0,0-3.07-8,21.9,21.9,0,0,0-11.16-10.34c.61-.41,1.21-.84,1.8-1.27h0A46.66,46.66,0,0,1,196.07,45l.65-.18-.51-.45-.84-.26a9.23,9.23,0,0,1,1.19-.2l.49,0-.19-.46c-.9-2.13-2.5-3.07-4.19-4.07-.48-.29-1-.58-1.51-.94-.76-.37-1.7-.75-2.62-1.12s-1.83-.73-2.61-1.12a46.64,46.64,0,0,0-23-1l.69,0c-1,.15-2,.34-3,.56q1.16-.3,2.31-.54c-17.69.81-30.6,13.59-40.6,29.2a113.23,113.23,0,0,0-8.9,14.21,16.78,16.78,0,0,1-1.56,1.8,20.39,20.39,0,0,1-2,1.7,27.33,27.33,0,0,0-2.4,1.84c-.47.36-.94.74-1.39,1.14a21.1,21.1,0,0,0-3.46,4.07c-.46.61-.91,1.24-1.35,1.9a33.6,33.6,0,0,0-2,5.3c-1,3-1.74,6-2.46,9.09-1.21,5.18-2.49,10.5-5,15.06,0,0-2.49,3.67-2.61,3.92l-.66.83s-1.79,2-2.16,2.56c0,0-5.83,6.92-7,11.24a16.78,16.78,0,0,0-.51,4.3,22.86,22.86,0,0,0,3.19,12.91l0,.05,0,.12a5.58,5.58,0,0,1,.07,2.25,2.82,2.82,0,0,1-.52,1,5.84,5.84,0,0,1-3.18,1.59l-.15,0a14.51,14.51,0,0,0-1.46.45l-.54.23c-3.12,1.5-4.21,5.26-4.22,8.43a44.79,44.79,0,0,0-.38,7.16c-.55,4.38-2.37,8.86-4.13,13.2-.59,1.45-1.2,3-1.77,4.47-.81,2.86.11,5.5,1,8.06a16.69,16.69,0,0,1,1.28,5.87c-.68,2.3-2,5.13-4.69,6.44-.39.2-.81.36-1.25.54-1.27.49-2.59,1-3.19,2.28a5.88,5.88,0,0,0-.49,1.86c-1.94,3.28,1,8.1,2.8,11.17l.1.16a9.42,9.42,0,0,0,.1,1.08s0,.07,0,.1a2.73,2.73,0,0,1-1.11,1.84,3.55,3.55,0,0,1-.78.39,15.86,15.86,0,0,1-1.84.5,14.23,14.23,0,0,0-5.39,2.13.1.1,0,0,0,0,0c-.14.09-.27.19-.41.3l-.16.14a3.22,3.22,0,0,0-.28.24c-.07,0-.13.12-.19.17s-.17.16-.25.25l-.19.2c-.07.09-.15.17-.23.26l-.19.23-.22.27L50,240l-.22.3-.18.27-.2.31-.18.29c-.06.12-.13.23-.19.34l-.17.31c-.07.12-.13.24-.19.36s-.11.22-.17.34l-.18.37-.16.36-.18.39-.15.38c-.06.14-.12.28-.17.42l-.15.4c-.06.14-.11.29-.17.44s-.09.28-.14.42-.08.22-.11.33c-1.35-1.79-2.66-3.6-3.92-5.45-1.45-2.14-2.85-4.33-4.19-6.55-.67-1.1-1.33-2.22-2-3.35-.08-.13-.62-1.11-.67-1.18l-1-1.88a146.42,146.42,0,0,1-6.55-14.3c-.95-2.43-1.85-4.89-2.67-7.38-.07-.2-.38-1.16-.41-1.26-.19-.61-.38-1.23-.56-1.85-.37-1.23-.73-2.48-1.06-3.72A142.23,142.23,0,0,1,43.76,81.83a146.42,146.42,0,0,1,44.05-42A141.88,141.88,0,0,1,144.06,20c2.48-.31,5-.55,7.48-.73,5.67-.43.05-9.58-4.08-9.27A147.71,147.71,0,0,0,14.12,123.67a150.89,150.89,0,0,0,26,124c1.79,2.42,3.67,4.79,5.59,7.12h0l.58.7.14.15a155.14,155.14,0,0,0,62.72,44.51,145.7,145.7,0,0,0,20,6.08l.08,0,.72.16.24,0a153.87,153.87,0,0,0,36.06,3.46h0a148.58,148.58,0,0,0,61.9-15.33l.09,0,.68-.34.07-.05a147.9,147.9,0,0,0,80.85-121A150.94,150.94,0,0,0,297,100.06Zm-12.85-10c-.2-.36-.1-.2,0,0Zm-59.54,10.65.33,0,0,.82A3.09,3.09,0,0,0,224.56,100.75ZM189.11,177a23.08,23.08,0,0,1-9.58-1.6l-7.72-2.15,11.78,1.31a7.54,7.54,0,0,1,2.27.52,5.45,5.45,0,0,1,.57.32,3.09,3.09,0,0,0,3.33.38l.48-.17a10.89,10.89,0,0,1,2.45,0l3.51.18A36.88,36.88,0,0,1,189.11,177Zm-67.17-27.47h0a1.39,1.39,0,0,1-.26.1h0ZM120.71,272a2.16,2.16,0,0,1,1.25-.37,4,4,0,0,1,1.54.37,1.13,1.13,0,0,1,0,.95,1,1,0,0,1-.78.72l-3.45.42A3.93,3.93,0,0,1,120.71,272Zm-44-109.34a5.83,5.83,0,0,0-2.44,2.3h0a5.76,5.76,0,0,1,2.45-2.31,12,12,0,0,1,2-.68A12,12,0,0,0,76.66,162.61Zm2.6-.84a9.2,9.2,0,0,0,1.57-.58A9.2,9.2,0,0,1,79.26,161.77Zm78.52-41.57.35-.12a30.69,30.69,0,0,1,9.18-1.87,25.61,25.61,0,0,1,12.1,3.23,78.35,78.35,0,0,1,10.71,7.16l.3.22.84-1.12,1.14.24.08-.36a13.39,13.39,0,0,0,.38-3,4.73,4.73,0,0,0-1.41-3.71,7,7,0,0,0-2.21-1.21l-8.44-3.27a31.37,31.37,0,0,0-4.86-1.58c-6.29-1.33-12.72,1.19-17.89,3.22l-.34.14.18.47-.58.19ZM202,135.28l-.29.23a4.74,4.74,0,0,0-1.6,4,14.54,14.54,0,0,0,.22,2.34,16.54,16.54,0,0,1,.18,2.53c0,1-.07,2-.13,2.92s-.14,2-.14,3a17.22,17.22,0,0,0,.2,2.76,19.58,19.58,0,0,0,.82,3c.1.34.21.68.32,1,.59,1.94.86,3.47.25,4.65-1.53,2.94-5.1,4.22-8.63,5.28l-.35.1s8.49-1.24,10.29-4.7a4.85,4.85,0,0,0,.51-2.26,15.39,15.39,0,0,0-1-4.54,19.56,19.56,0,0,1-.76-2.81,15.32,15.32,0,0,1-.19-2.53c0-1,.07-2,.14-2.91s.14-2,.14-3a18.23,18.23,0,0,0-.2-2.75,12.75,12.75,0,0,1-.2-2.11,4.24,4.24,0,0,1,.5-2.25A8.14,8.14,0,0,0,202,135.28Zm-41-4.13-.74.79,1,.4a25.1,25.1,0,0,1,4.09,2.18c2.69,1.57,5.48,3.19,7.75,3.43a7.14,7.14,0,0,0,.8,0c2.8,0,5.58-1.47,8-2.78l1.47-.76.33-.17-.19-.68c.27-.11.59-.19.77,0l1.38,1.59.08-.36a2.58,2.58,0,0,0,0-.39,1.88,1.88,0,0,0-.5-1.34,1.66,1.66,0,0,0-1.53-.6c-.84,0-2.38,1.27-3.12,1.53-.32.11-3.65,2.69-9.85-.08-5-2.24-8-4.35-8.56-5.44-1.15-.37-6.43,1.25-6.43,1.25s4.46-.34,5.93.16a.47.47,0,0,1-.05.1A7,7,0,0,1,161,131.15Zm19.14,30.93c1.32,1,3.13.84,4.38.6l.39-.07a17.23,17.23,0,0,1,5.3-.11,6.49,6.49,0,0,1,1.32.79,9.47,9.47,0,0,1,1.9,2,6.09,6.09,0,0,0-1.78-3.19,6.9,6.9,0,0,0-1.68-1c-1.3-.48-4.09-.21-5.35,0l-.39.07c-.95.19-2.32.36-3.17-.31a3.52,3.52,0,0,1-1-2.71c0-.1,0-.2,0-.31a3.77,3.77,0,0,1,.17-1.22,4.58,4.58,0,0,1,1.15-1.58,20.28,20.28,0,0,1,3-2.51c.83-.55,1.43-.74,1.86-.57a2.36,2.36,0,0,1,.9.87c1.1,1.46,2.19,3,3.25,4.46l.21.3s-1.17-4.17-2.28-5.65a3.76,3.76,0,0,0-1.55-1.36,3.55,3.55,0,0,0-3.21.73,21.52,21.52,0,0,0-3.26,2.68,5.92,5.92,0,0,0-1.5,2.13l-.09.28a5.61,5.61,0,0,0-.17,1.43c0,.13,0,.25,0,.37A4.89,4.89,0,0,0,180.1,162.08Z" transform="translate(-10.25 -10.03)"/></svg>